<svg xmlns="http://www.w3.org/2000/svg" width="33.825" height="33.825" viewBox="0 0 33.825 33.825">
  <path id="icon-currensy" d="M18.912,8.3V29.52m-5.3-4.982L15.162,25.7a6.615,6.615,0,0,0,7.5,0,3.323,3.323,0,0,0,0-5.626,6.283,6.283,0,0,0-3.75-1.165,5.722,5.722,0,0,1-3.541-1.165,3.431,3.431,0,0,1,0-5.626,5.963,5.963,0,0,1,7.083,0l.734.583m11.637,6.208A15.912,15.912,0,1,1,18.912,3,15.912,15.912,0,0,1,34.825,18.912Z" transform="translate(-2 -2)" fill="none" stroke="#d1322c" stroke-linecap="round" stroke-linejoin="round" stroke-width="2"/>
</svg>
