<svg xmlns="http://www.w3.org/2000/svg" width="30.642" height="28.52" viewBox="0 0 30.642 28.52">
  <path id="icon-giftcerts" d="M28.77,14.98V26.649a2.122,2.122,0,0,1-2.122,2.122H6.493a2.122,2.122,0,0,1-2.122-2.122V14.98M16.041,5.963a3.713,3.713,0,1,0-3.713,3.713h3.713m0-3.713V9.676m0-3.713a3.713,3.713,0,1,1,3.713,3.713H16.041m0,0V28.77M3.841,14.98H29.3a1.592,1.592,0,0,0,1.591-1.591V11.267A1.592,1.592,0,0,0,29.3,9.676H3.841A1.592,1.592,0,0,0,2.25,11.267v2.122A1.592,1.592,0,0,0,3.841,14.98Z" transform="translate(-1.25 -1.25)" fill="none" stroke="#d1322c" stroke-linecap="round" stroke-linejoin="round" stroke-width="2"/>
</svg>
