<svg xmlns="http://www.w3.org/2000/svg" width="30.571" height="28.52" viewBox="0 0 30.571 28.52">
  <path id="icon-cart" d="M2.25,3H4.292a1.659,1.659,0,0,1,1.6,1.23l.564,2.117M9.985,19.575A4.42,4.42,0,0,0,5.565,24H28.77M9.985,19.575H26.513A87.789,87.789,0,0,0,30.821,9.058,88.57,88.57,0,0,0,6.458,6.347M9.985,19.575,6.458,6.347M7.775,28.415A1.105,1.105,0,1,1,6.67,27.31,1.105,1.105,0,0,1,7.775,28.415Zm18.785,0a1.105,1.105,0,1,1-1.105-1.105A1.105,1.105,0,0,1,26.56,28.415Z" transform="translate(-1.25 -2)" fill="none" stroke="#d1322c" stroke-linecap="round" stroke-linejoin="round" stroke-width="2"/>
</svg>
