<svg xmlns="http://www.w3.org/2000/svg" width="480.054" height="482.996" viewBox="0 0 480.054 482.996">
  <g id="whychoose-pattern" transform="translate(479.828 0.572) rotate(90)">
    <g id="Group_4" data-name="Group 4" transform="translate(139.415 187.268)">
      <path id="Path_224" data-name="Path 224" d="M339.236,297.74c-19.829,40.3-27.416,84.242-27.416,128.738,0,8.753.291,17.537.843,26.305" transform="translate(-205.047 -249.911)" fill="none" stroke="#f8f8f8" stroke-linecap="round" stroke-miterlimit="10" stroke-width="5"/>
      <g id="Offset_Group">
        <path id="Path_225" data-name="Path 225" d="M327.755,292.22C307.1,334.2,299.33,379.715,299.33,425.307q0,13.46.867,26.928" transform="translate(-202.397 -248.74)" fill="none" stroke="#f8f8f8" stroke-linecap="round" stroke-miterlimit="10" stroke-width="5"/>
        <path id="Path_226" data-name="Path 226" d="M316.263,286.7c-21.484,43.653-29.433,90.749-29.433,137.435q0,13.791.882,27.542" transform="translate(-199.744 -247.569)" fill="none" stroke="#f8f8f8" stroke-linecap="round" stroke-miterlimit="10" stroke-width="5"/>
        <path id="Path_227" data-name="Path 227" d="M304.779,281.18c-22.311,45.331-30.449,94-30.449,141.784q0,14.122.906,28.165" transform="translate(-197.092 -246.398)" fill="none" stroke="#f8f8f8" stroke-linecap="round" stroke-miterlimit="10" stroke-width="5"/>
        <path id="Path_228" data-name="Path 228" d="M293.288,275.66c-23.13,47.009-31.458,97.249-31.458,146.133q0,14.453.922,28.779" transform="translate(-194.44 -245.227)" fill="none" stroke="#f8f8f8" stroke-linecap="round" stroke-miterlimit="10" stroke-width="5"/>
        <path id="Path_229" data-name="Path 229" d="M281.8,270.14c-23.958,48.687-32.474,100.5-32.474,150.482q0,14.783.945,29.4" transform="translate(-191.788 -244.055)" fill="none" stroke="#f8f8f8" stroke-linecap="round" stroke-miterlimit="10" stroke-width="5"/>
        <path id="Path_230" data-name="Path 230" d="M236.266,248.06c-21.011,42.692-31.324,87-34.956,129.951" transform="translate(-181.599 -239.37)" fill="none" stroke="#f8f8f8" stroke-linecap="round" stroke-miterlimit="10" stroke-width="5"/>
        <path id="Path_231" data-name="Path 231" d="M224.782,242.55c-21.736,44.165-32.3,89.882-35.972,134" transform="translate(-178.947 -238.201)" fill="none" stroke="#f8f8f8" stroke-linecap="round" stroke-miterlimit="10" stroke-width="5"/>
        <path id="Path_232" data-name="Path 232" d="M213.286,237.03c-22.461,45.638-33.278,92.774-37,138.05" transform="translate(-176.29 -237.03)" fill="none" stroke="#f8f8f8" stroke-linecap="round" stroke-miterlimit="10" stroke-width="5"/>
      </g>
    </g>
    <g id="Group_5" data-name="Group 5" transform="translate(280.435 5.415)">
      <path id="Path_233" data-name="Path 233" d="M355.29,254.26c43.047-75.481,80.043-156.438,71.952-245.8" transform="translate(-355.29 -6.68)" fill="none" stroke="#f8f8f8" stroke-linecap="round" stroke-miterlimit="10" stroke-width="5"/>
      <g id="Offset_Group-2" transform="translate(8.548 0)">
        <path id="Path_234" data-name="Path 234" d="M366.14,258.9c43.188-75.725,81.587-158.974,73.2-251.567" transform="translate(-366.14 -6.44)" fill="none" stroke="#f8f8f8" stroke-linecap="round" stroke-miterlimit="10" stroke-width="5"/>
        <path id="Path_235" data-name="Path 235" d="M377,263.534C420.322,187.572,460.139,102.015,451.465,6.2" transform="translate(-368.444 -6.2)" fill="none" stroke="#f8f8f8" stroke-linecap="round" stroke-miterlimit="10" stroke-width="5"/>
      </g>
    </g>
    <g id="Offset_Group-3" transform="translate(172.315 68.11)">
      <path id="Path_236" data-name="Path 236" d="M338.791,152.689A538.338,538.338,0,0,0,218.05,110.21" transform="translate(-218.05 -90.964)" fill="none" stroke="#f8f8f8" stroke-linecap="round" stroke-miterlimit="10" stroke-width="5"/>
      <path id="Path_237" data-name="Path 237" d="M344.794,141.793A548.607,548.607,0,0,0,220.72,97.99" transform="translate(-218.617 -88.371)" fill="none" stroke="#f8f8f8" stroke-linecap="round" stroke-miterlimit="10" stroke-width="5"/>
      <path id="Path_238" data-name="Path 238" d="M349.142,130.087A558.293,558.293,0,0,0,223.39,85.78" transform="translate(-219.183 -85.78)" fill="none" stroke="#f8f8f8" stroke-linecap="round" stroke-miterlimit="10" stroke-width="5"/>
    </g>
    <g id="Group_6" data-name="Group 6" transform="translate(108.139 2.5)">
      <path id="Path_239" data-name="Path 239" d="M223.393,8.46c-2.639,27.566-19.546,60.371-24.643,109.026" transform="translate(-149.779 -3.765)" fill="none" stroke="#f8f8f8" stroke-linecap="round" stroke-miterlimit="10" stroke-width="5"/>
      <g id="Offset_Group-4">
        <path id="Path_240" data-name="Path 240" d="M210.955,7.27c-1.04,10.856-4.561,22.855-9.036,37.973-5.712,19.278-12.613,42.487-15.6,70.967" transform="translate(-147.142 -3.512)" fill="none" stroke="#f8f8f8" stroke-linecap="round" stroke-miterlimit="10" stroke-width="5"/>
        <path id="Path_241" data-name="Path 241" d="M198.515,6.08c-.93,9.714-4.12,20.728-8.682,36.114-5.712,19.27-12.857,43.259-15.953,72.739" transform="translate(-144.502 -3.26)" fill="none" stroke="#f8f8f8" stroke-linecap="round" stroke-miterlimit="10" stroke-width="5"/>
        <path id="Path_242" data-name="Path 242" d="M186.069,4.88c-.819,8.571-3.679,18.6-8.319,34.254-5.712,19.27-13.109,44.031-16.3,74.512" transform="translate(-141.865 -3.005)" fill="none" stroke="#f8f8f8" stroke-linecap="round" stroke-miterlimit="10" stroke-width="5"/>
        <path id="Path_243" data-name="Path 243" d="M173.632,3.69c-.709,7.429-3.238,16.473-7.957,32.387-5.712,19.262-13.354,44.811-16.655,76.285" transform="translate(-139.227 -2.752)" fill="none" stroke="#f8f8f8" stroke-linecap="round" stroke-miterlimit="10" stroke-width="5"/>
        <path id="Path_244" data-name="Path 244" d="M161.194,2.5c-.6,6.287-2.8,14.346-7.595,30.528-5.712,19.254-13.606,45.583-17.009,78.057" transform="translate(-136.59 -2.5)" fill="none" stroke="#f8f8f8" stroke-linecap="round" stroke-miterlimit="10" stroke-width="5"/>
      </g>
    </g>
    <g id="Group_7" data-name="Group 7" transform="translate(271.139 260.574)">
      <path id="Path_245" data-name="Path 245" d="M349.93,330.08c48.522,34,98.611,45.142,155.728,51.059" transform="translate(-344.856 -330.08)" fill="none" stroke="#f8f8f8" stroke-linecap="round" stroke-miterlimit="10" stroke-width="5"/>
      <g id="Offset_Group-5" transform="translate(0 10.171)">
        <path id="Path_246" data-name="Path 246" d="M346.62,342.99c49.562,33.75,100.66,44.811,157.32,50.68" transform="translate(-344.154 -342.99)" fill="none" stroke="#f8f8f8" stroke-linecap="round" stroke-miterlimit="10" stroke-width="5"/>
        <path id="Path_247" data-name="Path 247" d="M343.49,355.95c50.554,33.467,102.558,44.449,158.769,50.271" transform="translate(-343.49 -345.74)" fill="none" stroke="#f8f8f8" stroke-linecap="round" stroke-miterlimit="10" stroke-width="5"/>
      </g>
    </g>
    <path id="Path_248" data-name="Path 248" d="M570.953,376.126v3.955c-9.926-.906-19.5-1.607-28.818-2.293-42.456-3.12-79.121-5.814-121.238-24.793a1.969,1.969,0,1,1,1.615-3.592C464,368.09,500.34,370.761,542.426,373.857,551.651,374.534,561.137,375.228,570.953,376.126Z" transform="translate(-88.528 -73.569)" fill="#f8f8f8"/>
    <path id="Path_249" data-name="Path 249" d="M572.042,363.822v3.955c-9.627-.867-18.924-1.552-27.983-2.222h-.11c-41.526-3.057-77.388-5.7-117.921-23.958a1.966,1.966,0,1,1,1.615-3.585c39.9,17.97,75.442,20.578,116.6,23.6h.11C553.323,362.285,562.525,362.963,572.042,363.822Z" transform="translate(-89.618 -71.152)" fill="#f8f8f8"/>
    <path id="Path_250" data-name="Path 250" d="M573.13,351.516v3.955c-9.328-.835-18.356-1.5-27.156-2.143l-.213-.024c-40.6-2.978-75.654-5.554-114.6-23.1a1.971,1.971,0,1,1,1.623-3.592c38.312,17.253,73.047,19.814,113.265,22.768l.221.016c8.713.646,17.639,1.3,26.865,2.119Z" transform="translate(-90.706 -68.733)" fill="#f8f8f8"/>
    <path id="Path_251" data-name="Path 251" d="M574.221,339.2v3.955c-9.028-.8-17.773-1.434-26.321-2.064l-.331-.024c-39.659-2.915-73.913-5.436-111.272-22.264a1.969,1.969,0,0,1,1.615-3.592c36.728,16.544,69.037,18.923,109.948,21.925l.323.024C556.637,337.784,565.287,338.414,574.221,339.2Z" transform="translate(-91.797 -66.314)" fill="#f8f8f8"/>
    <path id="Path_252" data-name="Path 252" d="M575.31,326.906v3.963c-8.879-.788-17.371-1.41-25.5-2.009l-.425-.032c-40.329-2.962-72.18-5.3-107.955-21.421a1.967,1.967,0,1,1,1.623-3.585c35.137,15.827,66.681,18.144,106.624,21.082l.425.024c8.044.591,16.442,1.205,25.21,1.977Z" transform="translate(-92.885 -63.897)" fill="#f8f8f8"/>
    <path id="Path_253" data-name="Path 253" d="M576.4,314.608v3.947c-8.579-.748-16.8-1.347-24.682-1.93l-.52-.031c-43.677-3.214-72.1-5.924-104.63-20.578a1.969,1.969,0,1,1,1.615-3.592c31.93,14.386,60.056,17.056,103.3,20.239l.52.039C559.8,313.276,567.922,313.875,576.4,314.608Z" transform="translate(-93.975 -61.478)" fill="#f8f8f8"/>
    <g id="Group_8" data-name="Group 8" transform="translate(366.04 12.316)">
      <path id="Path_254" data-name="Path 254" d="M463.95,225.738C495,160.577,511.416,90.477,511.416,18.321c0-1.064,0-2.127-.008-3.191" transform="translate(-463.95 -14.996)" fill="none" stroke="#f8f8f8" stroke-linecap="round" stroke-miterlimit="10" stroke-width="5"/>
      <g id="Offset_Group-6" transform="translate(8.894)">
        <path id="Path_255" data-name="Path 255" d="M475.24,229.957C506.895,163.521,523.667,91.979,523.667,18.3c0-1.087,0-2.174-.008-3.262" transform="translate(-475.24 -14.977)" fill="none" stroke="#f8f8f8" stroke-linecap="round" stroke-miterlimit="10" stroke-width="5"/>
        <path id="Path_256" data-name="Path 256" d="M486.52,234.171C518.781,166.458,535.9,93.474,535.9,18.285c0-1.111,0-2.214-.008-3.325" transform="translate(-477.633 -14.96)" fill="none" stroke="#f8f8f8" stroke-linecap="round" stroke-miterlimit="10" stroke-width="5"/>
      </g>
    </g>
    <g id="Group_9" data-name="Group 9" transform="translate(309.718 7.353)">
      <path id="Path_257" data-name="Path 257" d="M404.222,10.46c.748,10.4,1.284,20.475,1.284,30.347,0,23.217-2.962,45.347-13.046,68.107" transform="translate(-392.46 -9.042)" fill="none" stroke="#f8f8f8" stroke-linecap="round" stroke-miterlimit="10" stroke-width="5"/>
      <g id="Offset_Group-7" transform="translate(9.005)">
        <path id="Path_258" data-name="Path 258" d="M416.471,9.56c.756,10.5,1.308,20.838,1.308,31.056,0,24.115-3.08,47.71-13.889,72.093" transform="translate(-403.89 -8.851)" fill="none" stroke="#f8f8f8" stroke-linecap="round" stroke-miterlimit="10" stroke-width="5"/>
        <path id="Path_259" data-name="Path 259" d="M428.723,8.66c.764,10.6,1.339,21.208,1.339,31.765,0,25.013-3.206,50.066-14.732,76.08" transform="translate(-406.317 -8.66)" fill="none" stroke="#f8f8f8" stroke-linecap="round" stroke-miterlimit="10" stroke-width="5"/>
      </g>
    </g>
    <path id="Path_260" data-name="Path 260" d="M391.985,11.36c.741,10.3,1.261,20.105,1.261,29.638,0,22.327-2.836,42.991-12.2,64.113" transform="translate(-80.321 -1.88)" fill="none" stroke="#f8f8f8" stroke-linecap="round" stroke-miterlimit="10" stroke-width="5"/>
    <g id="Group_10" data-name="Group 10" transform="translate(179.098 38.598)">
      <path id="Path_261" data-name="Path 261" d="M302.291,94.967c-25.21-8.075-49.412-17.4-75.631-22.027" transform="translate(-226.66 -53.544)" fill="none" stroke="#f8f8f8" stroke-linecap="round" stroke-miterlimit="10" stroke-width="5"/>
      <g id="Offset_Group-8" transform="translate(1.717)">
        <path id="Path_262" data-name="Path 262" d="M305.763,82.98c-5.68-1.82-11.313-3.7-17.009-5.609-19.12-6.4-38.84-13.015-59.914-16.741" transform="translate(-228.84 -50.932)" fill="none" stroke="#f8f8f8" stroke-linecap="round" stroke-miterlimit="10" stroke-width="5"/>
        <path id="Path_263" data-name="Path 263" d="M309.225,70.986c-5.609-1.8-11.187-3.663-16.883-5.57-19.018-6.366-39.415-13.228-61.332-17.1" transform="translate(-229.3 -48.32)" fill="none" stroke="#f8f8f8" stroke-linecap="round" stroke-miterlimit="10" stroke-width="5"/>
      </g>
    </g>
    <g id="Group_11" data-name="Group 11" transform="translate(272.368 10.189)">
      <path id="Path_264" data-name="Path 264" d="M382.1,12.26c.733,10.194,1.237,19.735,1.237,28.929a173.685,173.685,0,0,1-2.576,31.5" transform="translate(-352.627 -12.26)" fill="none" stroke="#f8f8f8" stroke-linecap="round" stroke-miterlimit="10" stroke-width="5"/>
      <path id="Path_265" data-name="Path 265" d="M369.757,13.16c.725,10.092,1.205,19.365,1.205,28.22a167.766,167.766,0,0,1-2.072,27.747" transform="translate(-350.108 -12.451)" fill="none" stroke="#f8f8f8" stroke-linecap="round" stroke-miterlimit="10" stroke-width="5"/>
      <path id="Path_266" data-name="Path 266" d="M357.41,14.05c.717,9.99,1.182,19,1.182,27.511A163.214,163.214,0,0,1,357,65.542" transform="translate(-347.586 -12.64)" fill="none" stroke="#f8f8f8" stroke-linecap="round" stroke-miterlimit="10" stroke-width="5"/>
      <path id="Path_267" data-name="Path 267" d="M345.05,14.95c.709,9.887,1.158,18.632,1.158,26.8a158.9,158.9,0,0,1-1.158,20.184" transform="translate(-345.05 -12.831)" fill="none" stroke="#f8f8f8" stroke-linecap="round" stroke-miterlimit="10" stroke-width="5"/>
    </g>
    <g id="Group_12" data-name="Group 12" transform="translate(184.234 9.512)">
      <path id="Path_268" data-name="Path 268" d="M286.445,50.309c-16.395-5.42-34.247-10.943-53.265-14.3" transform="translate(-233.18 -16.622)" fill="none" stroke="#f8f8f8" stroke-linecap="round" stroke-miterlimit="10" stroke-width="5"/>
      <path id="Path_269" data-name="Path 269" d="M235.35,23.7c19.672,3.474,38.075,9.17,54.557,14.614" transform="translate(-233.64 -14.01)" fill="none" stroke="#f8f8f8" stroke-linecap="round" stroke-miterlimit="10" stroke-width="5"/>
      <path id="Path_270" data-name="Path 270" d="M293.379,26.329C276.811,20.854,257.856,14.985,237.53,11.4" transform="translate(-234.103 -11.4)" fill="none" stroke="#f8f8f8" stroke-linecap="round" stroke-miterlimit="10" stroke-width="5"/>
    </g>
    <g id="Group_13" data-name="Group 13" transform="translate(204.001 107.343)">
      <path id="Path_271" data-name="Path 271" d="M258.27,159.54c37.871,11.628,75.615,28.094,107.79,47.411" transform="translate(-258.27 -140.664)" fill="none" stroke="#f8f8f8" stroke-linecap="round" stroke-miterlimit="10" stroke-width="5"/>
      <path id="Path_272" data-name="Path 272" d="M261.85,147.56c38.635,11.857,77.136,28.653,110.043,48.4" transform="translate(-259.03 -138.122)" fill="none" stroke="#f8f8f8" stroke-linecap="round" stroke-miterlimit="10" stroke-width="5"/>
      <path id="Path_273" data-name="Path 273" d="M377.718,184.976c-33.624-20.184-72.889-37.311-112.288-49.4" transform="translate(-259.789 -135.58)" fill="none" stroke="#f8f8f8" stroke-linecap="round" stroke-miterlimit="10" stroke-width="5"/>
    </g>
    <path id="Path_274" data-name="Path 274" d="M507.054,422.479c-47.19-4.884-92.27-13.464-136.214-36.059" transform="translate(-78.154 -81.46)" fill="none" stroke="#f8f8f8" stroke-linecap="round" stroke-miterlimit="10" stroke-width="5"/>
    <path id="Path_275" data-name="Path 275" d="M368.82,399.43c44.559,22.287,90.048,30.764,136.789,35.609" transform="translate(-77.726 -84.22)" fill="none" stroke="#f8f8f8" stroke-linecap="round" stroke-miterlimit="10" stroke-width="5"/>
    <path id="Path_276" data-name="Path 276" d="M366.8,412.35c45.158,22,91.017,30.418,137.364,35.223" transform="translate(-77.297 -86.962)" fill="none" stroke="#f8f8f8" stroke-linecap="round" stroke-miterlimit="10" stroke-width="5"/>
    <path id="Path_277" data-name="Path 277" d="M512.85,211.644A507.169,507.169,0,0,0,551.335,18.266c0-1.127,0-2.261-.008-3.4" transform="translate(-108.286 -2.625)" fill="none" stroke="#f8f8f8" stroke-linecap="round" stroke-miterlimit="10" stroke-width="5"/>
    <path id="Path_278" data-name="Path 278" d="M524.25,215.7A517.071,517.071,0,0,0,563.609,18.249c0-1.15,0-2.308-.008-3.459" transform="translate(-110.705 -2.608)" fill="none" stroke="#f8f8f8" stroke-linecap="round" stroke-miterlimit="10" stroke-width="5"/>
    <path id="Path_279" data-name="Path 279" d="M575.86,14.7c0,1.174.016,2.348.016,3.522A526.966,526.966,0,0,1,535.65,219.746" transform="translate(-113.124 -2.589)" fill="none" stroke="#f8f8f8" stroke-linecap="round" stroke-miterlimit="10" stroke-width="5"/>
    <g id="Group_14" data-name="Group 14" transform="translate(306.094 58.215)">
      <path id="Path_280" data-name="Path 280" d="M463.64,74.33C457,151.371,423.17,220.959,387.86,282.874" transform="translate(-387.86 -73.456)" fill="none" stroke="#f8f8f8" stroke-linecap="round" stroke-miterlimit="10" stroke-width="5"/>
      <path id="Path_281" data-name="Path 281" d="M475.856,73.78c-6.578,79.846-41.526,151.427-77.135,213.854" transform="translate(-390.164 -73.339)" fill="none" stroke="#f8f8f8" stroke-linecap="round" stroke-miterlimit="10" stroke-width="5"/>
      <path id="Path_282" data-name="Path 282" d="M488.071,73.22c-6.507,82.674-42.6,156.233-78.491,219.172" transform="translate(-392.469 -73.22)" fill="none" stroke="#f8f8f8" stroke-linecap="round" stroke-miterlimit="10" stroke-width="5"/>
    </g>
    <g id="Group_15" data-name="Group 15" transform="translate(2.5 121.744)">
      <path id="Path_283" data-name="Path 283" d="M2.5,170.648c41.951-11.494,77.955-16.788,110.9-16.788,69.218,0,124.98,23.375,194.261,61.757" transform="translate(-2.5 -153.86)" fill="none" stroke="#f8f8f8" stroke-linecap="round" stroke-miterlimit="10" stroke-width="5"/>
      <g id="Offset_Group-9" transform="translate(2.702 9.848)">
        <path id="Path_284" data-name="Path 284" d="M5.93,182.77c41.266-11.3,76.34-16.41,108.2-16.41,66.673,0,120.647,22.382,189.487,60.52" transform="translate(-5.93 -166.36)" fill="none" stroke="#f8f8f8" stroke-linecap="round" stroke-miterlimit="10" stroke-width="5"/>
        <path id="Path_285" data-name="Path 285" d="M9.36,194.892c40.573-11.1,74.725-16.032,105.5-16.032,64.136,0,116.314,21.4,184.712,59.291" transform="translate(-6.658 -169.012)" fill="none" stroke="#f8f8f8" stroke-linecap="round" stroke-miterlimit="10" stroke-width="5"/>
        <path id="Path_286" data-name="Path 286" d="M12.79,207.012c39.879-10.9,73.11-15.662,102.795-15.662,61.592,0,111.981,20.4,179.938,58.054" transform="translate(-7.386 -171.662)" fill="none" stroke="#f8f8f8" stroke-linecap="round" stroke-miterlimit="10" stroke-width="5"/>
        <path id="Path_287" data-name="Path 287" d="M16.22,219.134C55.4,208.427,87.715,203.85,116.313,203.85c59.055,0,107.648,19.412,175.172,56.818" transform="translate(-8.113 -174.315)" fill="none" stroke="#f8f8f8" stroke-linecap="round" stroke-miterlimit="10" stroke-width="5"/>
        <path id="Path_288" data-name="Path 288" d="M19.65,231.256c38.485-10.51,69.88-14.906,97.39-14.906,56.518,0,103.315,18.419,170.4,55.589" transform="translate(-8.841 -176.967)" fill="none" stroke="#f8f8f8" stroke-linecap="round" stroke-miterlimit="10" stroke-width="5"/>
      </g>
    </g>
    <path id="Path_289" data-name="Path 289" d="M197.673,485.112c-11.1-.819-22.61-1.292-34.278-1.292-29.772,0-60.544,3.1-88.055,11.581" transform="translate(-15.455 -102.126)" fill="none" stroke="#f8f8f8" stroke-linecap="round" stroke-miterlimit="10" stroke-width="5"/>
    <g id="Offset_Group-10" transform="translate(45.389 332.455)">
      <path id="Path_290" data-name="Path 290" d="M197.617,472.634c-11.321-.835-23.075-1.324-35-1.324-30.37,0-62.2,3.159-90.954,12.014" transform="translate(-60.063 -431.927)" fill="none" stroke="#f8f8f8" stroke-linecap="round" stroke-miterlimit="10" stroke-width="5"/>
      <path id="Path_291" data-name="Path 291" d="M197.561,460.167c-11.534-.851-23.532-1.347-35.728-1.347-30.977,0-63.853,3.214-93.853,12.448" transform="translate(-59.282 -429.277)" fill="none" stroke="#f8f8f8" stroke-linecap="round" stroke-miterlimit="10" stroke-width="5"/>
      <path id="Path_292" data-name="Path 292" d="M197.5,447.689c-11.746-.867-23.989-1.379-36.452-1.379-31.576,0-65.507,3.269-96.752,12.889" transform="translate(-58.502 -426.622)" fill="none" stroke="#f8f8f8" stroke-linecap="round" stroke-miterlimit="10" stroke-width="5"/>
      <path id="Path_293" data-name="Path 293" d="M197.449,435.212c-11.967-.882-24.446-1.4-37.177-1.4-32.175,0-67.162,3.317-99.651,13.322" transform="translate(-57.721 -423.97)" fill="none" stroke="#f8f8f8" stroke-linecap="round" stroke-miterlimit="10" stroke-width="5"/>
      <path id="Path_294" data-name="Path 294" d="M197.393,422.746c-12.18-.9-24.9-1.426-37.9-1.426-32.781,0-68.816,3.372-102.551,13.755" transform="translate(-56.94 -421.32)" fill="none" stroke="#f8f8f8" stroke-linecap="round" stroke-miterlimit="10" stroke-width="5"/>
    </g>
    <g id="Group_16" data-name="Group 16" transform="translate(41.403 32.496)">
      <path id="Path_295" data-name="Path 295" d="M62.1,45.172c17.6-2.718,45.725-7.209,65.885-2.631" transform="translate(-54.048 -40.575)" fill="none" stroke="#f8f8f8" stroke-linecap="round" stroke-miterlimit="10" stroke-width="5"/>
      <g id="Offset_Group-11" transform="translate(0 9.838)">
        <path id="Path_296" data-name="Path 296" d="M57.92,58.284c1.867-.276,3.829-.583,5.83-.89,18.246-2.82,43.614-6.586,61.174-2.6" transform="translate(-53.162 -53.062)" fill="none" stroke="#f8f8f8" stroke-linecap="round" stroke-miterlimit="10" stroke-width="5"/>
        <path id="Path_297" data-name="Path 297" d="M51.88,146.7c7.673-.465,17.1-2.009,21.106-2.631,19.1-2.946,30.9-4.1,36.177-3.348,1.9.268-2.576-.559-.788-.158" transform="translate(-51.88 -71.604)" fill="none" stroke="#f8f8f8" stroke-linecap="round" stroke-miterlimit="10" stroke-width="5"/>
      </g>
    </g>
    <g id="Offset_Group-12" transform="translate(55.835 212.079)">
      <path id="Path_298" data-name="Path 298" d="M70.2,276.958c38-8.044,68.225-12.455,97.351-3.4" transform="translate(-70.2 -268.524)" fill="none" stroke="#f8f8f8" stroke-linecap="round" stroke-miterlimit="10" stroke-width="5"/>
      <path id="Path_299" data-name="Path 299" d="M72.78,289.245c38.06-8.052,65.964-11.849,92.4-3.632" transform="translate(-70.747 -271.176)" fill="none" stroke="#f8f8f8" stroke-linecap="round" stroke-miterlimit="10" stroke-width="5"/>
      <path id="Path_300" data-name="Path 300" d="M75.37,301.531c38.115-8.067,63.7-11.242,87.432-3.86" transform="translate(-71.297 -273.827)" fill="none" stroke="#f8f8f8" stroke-linecap="round" stroke-miterlimit="10" stroke-width="5"/>
    </g>
    <g id="Group_17" data-name="Group 17" transform="translate(79.666 242.793)">
      <path id="Path_301" data-name="Path 301" d="M173.957,307.51c0,26.6-13.511,51.76-10.636,78.837" transform="translate(-113.704 -307.51)" fill="none" stroke="#f8f8f8" stroke-linecap="round" stroke-miterlimit="10" stroke-width="5"/>
      <g id="Offset_Group-13">
        <path id="Path_302" data-name="Path 302" d="M161.459,307.51c0,10.667-2.442,21.263-5.247,33.183-3.285,13.992-7.114,29.9-5.334,46.694" transform="translate(-111.053 -307.51)" fill="none" stroke="#f8f8f8" stroke-linecap="round" stroke-miterlimit="10" stroke-width="5"/>
        <path id="Path_303" data-name="Path 303" d="M148.959,307.51c0,9.336-2.135,18.821-4.987,30.938-3.222,13.716-7.524,31.253-5.538,49.987" transform="translate(-108.402 -307.51)" fill="none" stroke="#f8f8f8" stroke-linecap="round" stroke-miterlimit="10" stroke-width="5"/>
        <path id="Path_304" data-name="Path 304" d="M136.462,307.51c0,8-1.828,16.371-4.719,28.685-3.159,13.448-7.941,32.616-5.743,53.28" transform="translate(-105.752 -307.51)" fill="none" stroke="#f8f8f8" stroke-linecap="round" stroke-miterlimit="10" stroke-width="5"/>
        <path id="Path_305" data-name="Path 305" d="M123.963,307.51c0,6.673-1.52,13.929-4.459,26.431-3.1,13.18-8.351,33.971-5.948,56.565" transform="translate(-103.1 -307.51)" fill="none" stroke="#f8f8f8" stroke-linecap="round" stroke-miterlimit="10" stroke-width="5"/>
        <path id="Path_306" data-name="Path 306" d="M111.464,307.51c0,5.341-1.221,11.479-4.2,24.178-3.033,12.912-8.761,35.326-6.153,59.859" transform="translate(-100.449 -307.51)" fill="none" stroke="#f8f8f8" stroke-linecap="round" stroke-miterlimit="10" stroke-width="5"/>
      </g>
    </g>
    <g id="Group_18" data-name="Group 18" transform="translate(49.714 182.549)">
      <path id="Path_307" data-name="Path 307" d="M136.6,231.143c-24.572-.843-49.223,3.679-74.173,8.958" transform="translate(-62.43 -231.041)" fill="none" stroke="#f8f8f8" stroke-linecap="round" stroke-miterlimit="10" stroke-width="5"/>
      <path id="Path_308" data-name="Path 308" d="M136.625,243.626c-23.067-.764-46.678,3.49-71.6,8.761" transform="translate(-62.98 -233.692)" fill="none" stroke="#f8f8f8" stroke-linecap="round" stroke-miterlimit="10" stroke-width="5"/>
      <path id="Path_309" data-name="Path 309" d="M136.655,256.109c-21.571-.685-44.134,3.3-69.045,8.571" transform="translate(-63.529 -236.344)" fill="none" stroke="#f8f8f8" stroke-linecap="round" stroke-miterlimit="10" stroke-width="5"/>
    </g>
    <g id="Group_19" data-name="Group 19" transform="translate(46.5 52.176)">
      <path id="Path_310" data-name="Path 310" d="M91.82,67.064c13.779-1.623,27.755-2.363,38.115-.008" transform="translate(-65.452 -65.555)" fill="none" stroke="#f8f8f8" stroke-linecap="round" stroke-miterlimit="10" stroke-width="5"/>
      <path id="Path_311" data-name="Path 311" d="M85.18,80.309c15.52-2.1,30.843-3.348,41.164-1.008" transform="translate(-64.043 -68.203)" fill="none" stroke="#f8f8f8" stroke-linecap="round" stroke-miterlimit="10" stroke-width="5"/>
      <path id="Path_312" data-name="Path 312" d="M78.48,93.655c17.852-2.623,34.412-4.341,44.26-2.1" transform="translate(-62.621 -70.852)" fill="none" stroke="#f8f8f8" stroke-linecap="round" stroke-miterlimit="10" stroke-width="5"/>
      <path id="Path_313" data-name="Path 313" d="M71.73,107.074l.961-.15c20.625-3.183,37.729-5.1,46.442-3.112" transform="translate(-61.189 -73.501)" fill="none" stroke="#f8f8f8" stroke-linecap="round" stroke-miterlimit="10" stroke-width="5"/>
      <path id="Path_314" data-name="Path 314" d="M64.99,120.474c3.017-.425,5.775-.867,7.768-1.174,21.216-3.277,36.255-4.719,42.755-3.246" transform="translate(-59.759 -76.147)" fill="none" stroke="#f8f8f8" stroke-linecap="round" stroke-miterlimit="10" stroke-width="5"/>
      <path id="Path_315" data-name="Path 315" d="M111.93,128.312c-.874-.2,1.087.2.181.039-5.759-1.056-19.026.213-39.257,3.332-3.159.488-8.863,1.41-14.5,2.033" transform="translate(-58.35 -78.801)" fill="none" stroke="#f8f8f8" stroke-linecap="round" stroke-miterlimit="10" stroke-width="5"/>
    </g>
    <g id="Group_20" data-name="Group 20" transform="translate(70.891 394.661)">
      <path id="Path_316" data-name="Path 316" d="M89.31,509.93c7.413,19.152,26.282,66.059,30.142,74.236" transform="translate(-89.31 -502.328)" fill="none" stroke="#f8f8f8" stroke-linecap="round" stroke-miterlimit="10" stroke-width="5"/>
      <path id="Path_317" data-name="Path 317" d="M101.62,507.11c7.736,19.9,25.746,64.625,29.346,72.251" transform="translate(-91.922 -501.729)" fill="none" stroke="#f8f8f8" stroke-linecap="round" stroke-miterlimit="10" stroke-width="5"/>
      <path id="Path_318" data-name="Path 318" d="M114.12,504.77c8.044,20.617,25.061,62.821,28.393,69.88" transform="translate(-94.574 -501.233)" fill="none" stroke="#f8f8f8" stroke-linecap="round" stroke-miterlimit="10" stroke-width="5"/>
      <path id="Path_319" data-name="Path 319" d="M126.8,502.88c8.311,21.208,24.249,60.686,27.314,67.17" transform="translate(-97.265 -500.832)" fill="none" stroke="#f8f8f8" stroke-linecap="round" stroke-miterlimit="10" stroke-width="5"/>
      <path id="Path_320" data-name="Path 320" d="M139.65,501.39c8.493,21.6,23.3,58.22,26.1,64.144" transform="translate(-99.991 -500.516)" fill="none" stroke="#f8f8f8" stroke-linecap="round" stroke-miterlimit="10" stroke-width="5"/>
      <path id="Path_321" data-name="Path 321" d="M152.65,500.28c8.516,21.578,22.051,55,24.769,60.82" transform="translate(-102.749 -500.28)" fill="none" stroke="#f8f8f8" stroke-linecap="round" stroke-miterlimit="10" stroke-width="5"/>
    </g>
    <path id="Path_322" data-name="Path 322" d="M335.619,499.592c-36.429,10.809-124.7,6.846-168.5-.882" transform="translate(-34.929 -105.286)" fill="none" stroke="#f8f8f8" stroke-linecap="round" stroke-miterlimit="10" stroke-width="5"/>
    <path id="Path_323" data-name="Path 323" d="M339.528,511.82c-37.075,11-121.332,7.5-167.168.347" transform="translate(-36.041 -108.067)" fill="none" stroke="#f8f8f8" stroke-linecap="round" stroke-miterlimit="10" stroke-width="5"/>
    <path id="Path_324" data-name="Path 324" d="M343.438,523.8c-37.689,11.179-118.512,8.122-165.868,1.465" transform="translate(-37.146 -110.609)" fill="none" stroke="#f8f8f8" stroke-linecap="round" stroke-miterlimit="10" stroke-width="5"/>
    <path id="Path_325" data-name="Path 325" d="M347.327,535.79c-38.264,11.353-116.1,8.721-164.607,2.505" transform="translate(-38.239 -113.153)" fill="none" stroke="#f8f8f8" stroke-linecap="round" stroke-miterlimit="10" stroke-width="5"/>
    <g id="Group_21" data-name="Group 21" transform="translate(256.005 336.15)">
      <path id="Path_326" data-name="Path 326" d="M419.611,451.98c-30.181,25.195-52.4,30.575-89.481,34.057" transform="translate(-325.521 -431.52)" fill="none" stroke="#f8f8f8" stroke-linecap="round" stroke-miterlimit="10" stroke-width="5"/>
      <path id="Path_327" data-name="Path 327" d="M407.892,447.67c-25.47,19.869-45.126,24.47-78.932,27.645" transform="translate(-325.273 -430.606)" fill="none" stroke="#f8f8f8" stroke-linecap="round" stroke-miterlimit="10" stroke-width="5"/>
      <path id="Path_328" data-name="Path 328" d="M395.655,443.42C375.022,458,357.745,461.8,327.8,464.612" transform="translate(-325.027 -429.704)" fill="none" stroke="#f8f8f8" stroke-linecap="round" stroke-miterlimit="10" stroke-width="5"/>
      <path id="Path_329" data-name="Path 329" d="M383.359,438.55c-16.079,9.824-31.143,12.818-56.739,15.221" transform="translate(-324.777 -428.671)" fill="none" stroke="#f8f8f8" stroke-linecap="round" stroke-miterlimit="10" stroke-width="5"/>
      <path id="Path_330" data-name="Path 330" d="M370.765,432.87c-12.006,5.743-24.832,7.965-45.315,9.887" transform="translate(-324.528 -427.466)" fill="none" stroke="#f8f8f8" stroke-linecap="round" stroke-miterlimit="10" stroke-width="5"/>
      <path id="Path_331" data-name="Path 331" d="M357.4,426.01c-8.579,2.686-18.7,4.136-33.12,5.491" transform="translate(-324.28 -426.01)" fill="none" stroke="#f8f8f8" stroke-linecap="round" stroke-miterlimit="10" stroke-width="5"/>
    </g>
    <path id="Path_332" data-name="Path 332" d="M589.14,395.88c-1.324,40.3-13.338,114.053-31.6,161.377" transform="translate(-117.768 -83.467)" fill="none" stroke="#f8f8f8" stroke-linecap="round" stroke-miterlimit="10" stroke-width="5"/>
    <g id="Group_23" data-name="Group 23" transform="translate(328.146 374.966)">
      <line id="Line_1" data-name="Line 1" x1="84.179" y2="1.418" transform="translate(0.756 49.365)" fill="none" stroke="#f8f8f8" stroke-linecap="round" stroke-miterlimit="10" stroke-width="5"/>
      <line id="Line_2" data-name="Line 2" x1="86.857" y2="1.457" transform="translate(0.504 39.486)" fill="none" stroke="#f8f8f8" stroke-linecap="round" stroke-miterlimit="10" stroke-width="5"/>
      <line id="Line_3" data-name="Line 3" x1="89.339" y2="1.481" transform="translate(0.252 29.614)" fill="none" stroke="#f8f8f8" stroke-linecap="round" stroke-miterlimit="10" stroke-width="5"/>
      <line id="Line_4" data-name="Line 4" x1="91.655" y2="1.52" transform="translate(0 19.735)" fill="none" stroke="#f8f8f8" stroke-linecap="round" stroke-miterlimit="10" stroke-width="5"/>
      <line id="Line_5" data-name="Line 5" x1="86.605" y2="1.426" transform="translate(6.949 9.864)" fill="none" stroke="#f8f8f8" stroke-linecap="round" stroke-miterlimit="10" stroke-width="5"/>
      <line id="Line_6" data-name="Line 6" x1="82.193" y2="1.339" transform="translate(13.109)" fill="none" stroke="#f8f8f8" stroke-linecap="round" stroke-miterlimit="10" stroke-width="5"/>
      <g id="Group_22" data-name="Group 22" transform="translate(24.123 59.252)">
        <line id="Line_7" data-name="Line 7" x1="48.475" y2="0.835" transform="translate(0 29.693)" fill="none" stroke="#f8f8f8" stroke-linecap="round" stroke-miterlimit="10" stroke-width="5"/>
        <line id="Line_8" data-name="Line 8" y1="0.89" x2="52.083" transform="translate(0 19.79)" fill="none" stroke="#f8f8f8" stroke-linecap="round" stroke-miterlimit="10" stroke-width="5"/>
        <line id="Line_9" data-name="Line 9" y1="0.945" x2="55.281" transform="translate(0 9.887)" fill="none" stroke="#f8f8f8" stroke-linecap="round" stroke-miterlimit="10" stroke-width="5"/>
        <line id="Line_10" data-name="Line 10" y1="0.985" x2="58.181" fill="none" stroke="#f8f8f8" stroke-linecap="round" stroke-miterlimit="10" stroke-width="5"/>
      </g>
    </g>
    <g id="Group_24" data-name="Group 24" transform="translate(407.739 333.432)">
      <path id="Path_333" data-name="Path 333" d="M549.464,422.56c-4.278,43.622-16.6,105.765-32.584,140.358" transform="translate(-516.88 -422.56)" fill="none" stroke="#f8f8f8" stroke-linecap="round" stroke-miterlimit="10" stroke-width="5"/>
      <path id="Path_334" data-name="Path 334" d="M562.185,423.55C558,466.329,546.256,526.621,530.57,563.128" transform="translate(-519.785 -422.77)" fill="none" stroke="#f8f8f8" stroke-linecap="round" stroke-miterlimit="10" stroke-width="5"/>
      <path id="Path_335" data-name="Path 335" d="M574.874,424.54c-4.1,42.062-15.362,100.786-30.764,138.8" transform="translate(-522.658 -422.98)" fill="none" stroke="#f8f8f8" stroke-linecap="round" stroke-miterlimit="10" stroke-width="5"/>
    </g>
    <g id="Group_25" data-name="Group 25" transform="translate(173.323 200.306)">
      <path id="Path_336" data-name="Path 336" d="M271.846,264.62a319.177,319.177,0,0,0-27.786,86.455" transform="translate(-224.577 -255.922)" fill="none" stroke="#f8f8f8" stroke-linecap="round" stroke-miterlimit="10" stroke-width="5"/>
      <path id="Path_337" data-name="Path 337" d="M260.392,259.1A329.1,329.1,0,0,0,231.7,348.439" transform="translate(-221.955 -254.751)" fill="none" stroke="#f8f8f8" stroke-linecap="round" stroke-miterlimit="10" stroke-width="5"/>
      <path id="Path_338" data-name="Path 338" d="M248.928,253.58a339.108,339.108,0,0,0-29.6,92.222" transform="translate(-219.33 -253.58)" fill="none" stroke="#f8f8f8" stroke-linecap="round" stroke-miterlimit="10" stroke-width="5"/>
    </g>
    <g id="Group_26" data-name="Group 26" transform="translate(188.82 432.075)">
      <path id="Path_339" data-name="Path 339" d="M239,554.742c43.945,2.584,93.845,1.694,123.073-6.972" transform="translate(-239 -547.77)" fill="none" stroke="#f8f8f8" stroke-linecap="round" stroke-miterlimit="10" stroke-width="5"/>
      <path id="Path_340" data-name="Path 340" d="M242.17,567.289c43.976,2.411,93.435,1.347,123.373-7.539" transform="translate(-239.673 -550.312)" fill="none" stroke="#f8f8f8" stroke-linecap="round" stroke-miterlimit="10" stroke-width="5"/>
      <path id="Path_341" data-name="Path 341" d="M245.34,579.821c44,2.245,93.057.993,123.68-8.091" transform="translate(-240.345 -552.854)" fill="none" stroke="#f8f8f8" stroke-linecap="round" stroke-miterlimit="10" stroke-width="5"/>
      <path id="Path_342" data-name="Path 342" d="M372.489,583.72c-31.261,9.273-79.964,10.707-123.979,8.627" transform="translate(-241.018 -555.398)" fill="none" stroke="#f8f8f8" stroke-linecap="round" stroke-miterlimit="10" stroke-width="5"/>
    </g>
  </g>
</svg>
